# xmcd CD database file
#
# Track frame offsets:
#	150
#	16675
#	42545
#	67562
#
# Disc length: 1119 seconds
#
# Revision: 1
# Processed by: cddbd v1.5.2PL0 Copyright (c) Steve Scherf et al.
# Submitted via: CDex 1.70beta2
#
DISCID=23045d04
DTITLE=今夜はブギー・バック - TOKYO No.1 SOUL SET and HALCALI 
DYEAR=2009
DGENRE=Hip-Hop
TTITLE0=今夜はブギー・バック 
TTITLE1=Rising Sun (Single Mix) 
TTITLE2=Innocent Love 2009 
TTITLE3=今夜はブギー・バック (Karaoke)
EXTD=YEAR: 2009
EXTT0=
EXTT1=
EXTT2=
EXTT3=
PLAYORDER=
